<mxfile host="app.diagrams.net" modified="2023-06-09T08:46:36.553Z" agent="Mozilla/5.0 (Macintosh; Intel Mac OS X 10_15_7) AppleWebKit/537.36 (KHTML, like Gecko) Chrome/114.0.0.0 Safari/537.36" version="21.3.8" etag="fdu29wv1cBNHTJ-XI4jI" type="github">
  <diagram name="第 1 页" id="zCs392EmpSUMFyj23Mp1">
    <mxGraphModel>
      <root>
        <mxCell id="0" />
        <mxCell id="1" parent="0" />
      </root>
    </mxGraphModel>
  </diagram>
</mxfile>
